<?xml version="1.0" standalone="no"?>
<!DOCTYPE svg PUBLIC "-//W3C//DTD SVG 20010904//EN"
 "http://www.w3.org/TR/2001/REC-SVG-20010904/DTD/svg10.dtd">
<svg version="1.0" xmlns="http://www.w3.org/2000/svg"
 width="50.000000pt" height="50.000000pt" viewBox="0 0 50.000000 50.000000"
 preserveAspectRatio="xMidYMid meet">

<g transform="translate(0.000000,50.000000) scale(0.100000,-0.100000)"
fill="#FFFFFF" stroke="none">
<path d="M223 436 c-4 -8 -17 -15 -27 -17 -20 -4 -65 -72 -66 -99 0 -19 -45
-40 -83 -40 -26 0 -29 -3 -23 -22 18 -62 18 -79 3 -96 -22 -24 -12 -92 13 -92
10 0 23 7 30 15 15 19 110 21 128 3 7 -7 36 -13 65 -14 29 0 67 -4 85 -8 30
-7 33 -6 38 23 5 25 12 31 31 31 23 0 24 2 18 40 -6 35 -4 40 13 40 31 0 46
24 30 49 -7 12 -17 21 -21 21 -17 0 -62 65 -64 93 -2 36 -31 70 -56 63 -10 -2
-30 2 -45 10 -34 18 -59 18 -69 0z"/>
</g>
</svg>
