<?xml version="1.0" standalone="no"?>
<!DOCTYPE svg PUBLIC "-//W3C//DTD SVG 20010904//EN"
 "http://www.w3.org/TR/2001/REC-SVG-20010904/DTD/svg10.dtd">
<svg version="1.0" xmlns="http://www.w3.org/2000/svg"
 width="50.000000pt" height="50.000000pt" viewBox="0 0 50.000000 50.000000"
 preserveAspectRatio="xMidYMid meet">

<g transform="translate(0.000000,50.000000) scale(0.100000,-0.100000)"
fill="#FFFFFF" stroke="none">
<path d="M166 443 c-4 -4 -32 -8 -63 -8 -42 -1 -59 -6 -69 -20 -19 -25 -18
-45 4 -61 16 -13 16 -13 0 -14 -22 0 -23 -13 -3 -30 8 -7 15 -21 15 -31 0 -11
6 -20 13 -21 21 -2 31 -5 52 -12 56 -21 67 -28 72 -46 6 -22 18 -26 28 -10 10
17 43 -11 37 -32 -3 -14 2 -21 17 -25 11 -3 21 -9 21 -14 0 -5 18 -21 40 -35
l41 -27 27 20 c15 11 31 29 37 41 5 12 15 22 22 22 17 0 16 10 -3 49 -13 25
-13 35 -4 47 14 16 23 89 14 116 -3 10 -14 18 -25 18 -10 0 -19 7 -19 15 0 8
-8 15 -18 15 -10 0 -23 5 -30 12 -8 8 -15 8 -26 -1 -8 -7 -20 -10 -25 -6 -6 3
-19 1 -29 -4 -15 -8 -22 -4 -36 20 -13 23 -24 29 -50 29 -18 0 -36 -3 -40 -7z"/>
</g>
</svg>
