<?xml version="1.0" standalone="no"?>
<!DOCTYPE svg PUBLIC "-//W3C//DTD SVG 20010904//EN"
 "http://www.w3.org/TR/2001/REC-SVG-20010904/DTD/svg10.dtd">
<svg version="1.0" xmlns="http://www.w3.org/2000/svg"
 width="512.000000pt" height="512.000000pt" viewBox="0 0 512.000000 512.000000"
 preserveAspectRatio="xMidYMid meet">
<metadata>
Created by potrace 1.16, written by Peter Selinger 2001-2019
</metadata>
<g transform="translate(0.000000,512.000000) scale(0.100000,-0.100000)"
fill="#000000" stroke="none">
<path d="M4410 4921 c-75 -24 -115 -62 -420 -396 -314 -344 -877 -921 -1230
-1262 -192 -184 -350 -336 -353 -336 -3 -1 -171 151 -373 339 -821 758 -1111
1019 -1163 1048 -42 22 -70 29 -135 33 -118 7 -180 -17 -266 -106 -36 -37 -87
-80 -115 -96 -123 -71 -247 -189 -315 -302 -31 -50 -35 -67 -39 -136 -3 -74
-1 -83 32 -150 48 -96 182 -291 288 -419 200 -239 412 -451 877 -870 133 -121
242 -221 242 -223 0 -2 -123 -112 -272 -243 -460 -403 -603 -571 -648 -761
-19 -79 -8 -197 24 -267 56 -122 176 -258 339 -383 94 -72 157 -96 236 -88
174 16 492 172 745 364 96 73 259 217 391 344 l120 117 113 -109 c396 -381
749 -647 1047 -791 68 -32 92 -39 146 -39 67 0 132 18 177 49 15 11 53 22 84
25 75 7 149 48 202 111 22 27 59 65 81 85 115 105 153 168 162 271 7 77 -24
179 -74 246 -90 119 -453 514 -830 902 l-202 209 182 173 c682 651 964 941
1203 1239 176 219 309 415 402 594 39 75 47 99 50 157 3 39 -1 84 -9 107 -7
21 -13 62 -14 90 -4 99 -41 152 -200 286 -89 74 -167 131 -214 155 -67 33 -84
37 -160 39 -47 1 -97 -1 -111 -6z"/>
</g>
</svg>
