<?xml version="1.0" standalone="no"?>
<!DOCTYPE svg PUBLIC "-//W3C//DTD SVG 20010904//EN"
 "http://www.w3.org/TR/2001/REC-SVG-20010904/DTD/svg10.dtd">
<svg version="1.0" xmlns="http://www.w3.org/2000/svg"
 width="50.000000pt" height="50.000000pt" viewBox="0 0 50.000000 50.000000"
 preserveAspectRatio="xMidYMid meet">

<g transform="translate(0.000000,50.000000) scale(0.100000,-0.100000)"
fill="#FFFFFF" stroke="none">
<path d="M175 474 c-16 -9 -42 -16 -57 -16 -16 0 -28 -4 -28 -9 0 -5 -8 -9
-19 -9 -21 0 -31 -26 -24 -64 8 -39 28 -52 58 -36 20 11 27 11 40 0 8 -7 15
-18 15 -26 0 -18 71 -85 117 -109 54 -29 85 -64 77 -89 -10 -35 -10 -40 6 -43
8 -1 26 11 38 28 23 28 23 31 8 54 -13 19 -13 25 -3 25 7 0 18 -5 25 -12 9 -9
15 -9 24 0 15 15 -6 41 -49 59 -18 7 -33 20 -33 28 0 10 -10 15 -31 15 -24 0
-33 6 -44 33 -7 17 -23 38 -34 44 -21 13 -19 39 4 58 7 6 15 22 17 35 2 20 -2
26 -19 28 -13 2 -23 8 -23 13 0 14 -32 11 -65 -7z"/>
<path d="M98 218 c-12 -10 -14 -23 -9 -57 7 -49 21 -60 45 -36 19 19 21 76 4
93 -15 15 -20 15 -40 0z"/>
<path d="M225 87 c-24 -13 -17 -25 31 -53 52 -31 68 -24 70 30 1 33 0 33 -43
32 -24 0 -50 -5 -58 -9z"/>
</g>
</svg>
