<?xml version="1.0" standalone="no"?>
<!DOCTYPE svg PUBLIC "-//W3C//DTD SVG 20010904//EN"
 "http://www.w3.org/TR/2001/REC-SVG-20010904/DTD/svg10.dtd">
<svg version="1.0" xmlns="http://www.w3.org/2000/svg"
 width="50.000000pt" height="50.000000pt" viewBox="0 0 50.000000 50.000000"
 preserveAspectRatio="xMidYMid meet">

<g transform="translate(0.000000,50.000000) scale(0.100000,-0.100000)"
fill="#FFFFFF" stroke="none">
<path d="M410 379 c-20 -29 -51 -59 -64 -61 -6 -1 -29 -2 -51 -4 -22 -1 -61
-5 -87 -9 -36 -5 -48 -3 -48 7 -1 33 -15 39 -56 22 -44 -18 -74 -46 -74 -69 0
-9 -7 -18 -16 -22 -11 -4 -13 -13 -8 -37 9 -45 19 -51 45 -27 27 25 33 26 49
6 7 -9 21 -13 34 -10 15 4 29 -3 49 -24 26 -28 33 -30 93 -30 47 1 70 5 82 17
22 22 62 17 62 -9 0 -10 4 -19 9 -19 18 0 33 31 29 61 -5 29 -4 30 9 14 7 -11
13 -14 13 -7 0 6 -12 19 -27 29 -16 9 -30 18 -32 20 -2 2 2 14 9 28 13 24 14
24 27 5 14 -20 43 -28 43 -11 0 4 -9 20 -21 35 -11 14 -18 30 -15 35 7 11 -21
81 -32 81 -4 0 -14 -10 -22 -21z"/>
<path d="M205 360 c3 -5 11 -10 16 -10 6 0 7 5 4 10 -3 6 -11 10 -16 10 -6 0
-7 -4 -4 -10z"/>
<path d="M176 321 c-3 -4 6 -6 19 -3 14 2 25 6 25 8 0 8 -39 4 -44 -5z"/>
</g>
</svg>
